<svg width="32" height="32" viewBox="0 0 32 32" fill="none" xmlns="http://www.w3.org/2000/svg">
<path d="M11.2867 15.0573C12.7973 13.5466 15.432 13.5466 16.9427 15.0573L17.8853 16L19.7707 14.1146L18.828 13.172C17.5707 11.9133 15.896 11.2186 14.1147 11.2186C12.3333 11.2186 10.6587 11.9133 9.40133 13.172L6.572 16C5.32439 17.2516 4.62383 18.9467 4.62383 20.714C4.62383 22.4812 5.32439 24.1763 6.572 25.428C7.1905 26.0473 7.92529 26.5384 8.73416 26.8729C9.54302 27.2075 10.41 27.3789 11.2853 27.3773C12.1609 27.3791 13.0282 27.2078 13.8373 26.8733C14.6464 26.5388 15.3814 26.0476 16 25.428L16.9427 24.4853L15.0573 22.6L14.1147 23.5426C13.3633 24.2906 12.3462 24.7106 11.286 24.7106C10.2258 24.7106 9.20871 24.2906 8.45733 23.5426C7.70867 22.7916 7.28827 21.7744 7.28827 20.714C7.28827 19.6535 7.70867 18.6363 8.45733 17.8853L11.2867 15.0573Z" fill="#d0d0ee "/>
<path d="M16 6.57195L15.0573 7.51462L16.9427 9.39995L17.8853 8.45728C18.6367 7.70927 19.6538 7.28932 20.714 7.28932C21.7742 7.28932 22.7913 7.70927 23.5427 8.45728C24.2913 9.20831 24.7117 10.2255 24.7117 11.286C24.7117 12.3464 24.2913 13.3636 23.5427 14.1146L20.7133 16.9426C19.2027 18.4533 16.568 18.4533 15.0573 16.9426L14.1147 16L12.2293 17.8853L13.172 18.828C14.4293 20.0866 16.104 20.7813 17.8853 20.7813C19.6667 20.7813 21.3413 20.0866 22.5987 18.828L25.428 16C26.6756 14.7483 27.3762 13.0532 27.3762 11.286C27.3762 9.51873 26.6756 7.82357 25.428 6.57195C24.1767 5.32369 22.4814 4.62268 20.714 4.62268C18.9466 4.62268 17.2513 5.32369 16 6.57195V6.57195Z" fill="#d0d0ee "/>
</svg>
