<svg width="100" height="100" viewBox="0 0 24 24" fill="none" xmlns="http://www.w3.org/2000/svg">
<path d="M12 13.03C12.9858 13.03 13.785 12.2308 13.785 11.245C13.785 10.2592 12.9858 9.46001 12 9.46001C11.0142 9.46001 10.215 10.2592 10.215 11.245C10.215 12.2308 11.0142 13.03 12 13.03Z" fill="#d0d0ee "/>
<path d="M7.00199 14.794L6.60699 14.693C3.67299 13.952 1.98999 12.692 1.98999 11.241C1.98999 9.789 3.67399 8.53 6.60699 7.789L7.00199 7.689L7.11299 8.08C7.40953 9.1037 7.78947 10.1014 8.24899 11.063L8.33399 11.241L8.24899 11.419C7.78899 12.382 7.40799 13.38 7.11299 14.404L7.00199 14.794V14.794ZM6.42499 8.699C4.19599 9.327 2.82699 10.285 2.82699 11.241C2.82699 12.195 4.19499 13.154 6.42499 13.781C6.69799 12.913 7.02799 12.064 7.40999 11.241C7.02522 10.4166 6.69615 9.5674 6.42499 8.699V8.699ZM16.997 14.794L16.887 14.402C16.5897 13.3781 16.2094 12.3801 15.75 11.418L15.665 11.241L15.75 11.062C16.21 10.101 16.589 9.102 16.887 8.078L16.997 7.688L17.392 7.788C20.327 8.529 22.009 9.788 22.009 11.241C22.009 12.693 20.326 13.952 17.392 14.693L16.997 14.794V14.794ZM16.587 11.241C16.987 12.107 17.32 12.959 17.574 13.781C19.804 13.154 21.173 12.195 21.173 11.241C21.173 10.285 19.805 9.328 17.574 8.699C17.3013 9.56713 16.9716 10.4163 16.587 11.241V11.241Z" fill="#d0d0ee "/>
<path d="M6.41901 8.695L6.30901 8.305C5.48301 5.397 5.73301 3.314 6.99601 2.588C8.23101 1.873 10.218 2.718 12.299 4.853L12.583 5.145L12.299 5.436C11.5599 6.20469 10.8843 7.03207 10.279 7.91L10.166 8.072L9.97001 8.088C8.90559 8.1716 7.84976 8.34183 6.81301 8.597L6.41901 8.695V8.695ZM8.00101 3.166C7.77701 3.166 7.57901 3.215 7.41201 3.311C6.58401 3.788 6.43801 5.449 7.00801 7.691C7.89901 7.494 8.79801 7.353 9.70401 7.274C10.2285 6.53005 10.8007 5.8209 11.417 5.151C10.114 3.884 8.88401 3.166 8.00101 3.166V3.166ZM15.998 20.15C14.81 20.15 13.284 19.254 11.7 17.628L11.417 17.337L11.7 17.047C12.4392 16.2771 13.1151 15.4487 13.721 14.57L13.833 14.41L14.027 14.391C15.0918 14.3089 16.148 14.1393 17.185 13.884L17.58 13.784L17.691 14.175C18.513 17.081 18.264 19.167 17.003 19.893C16.6968 20.0665 16.3499 20.1553 15.998 20.15V20.15ZM12.583 17.33C13.885 18.597 15.116 19.316 15.998 19.316C16.223 19.316 16.421 19.266 16.587 19.171C17.416 18.693 17.563 17.029 16.991 14.787C16.101 14.985 15.201 15.127 14.293 15.206C13.7707 15.9511 13.1995 16.6607 12.583 17.33V17.33Z" fill="#d0d0ee "/>
<path d="M17.58 8.69499L17.185 8.59599C16.1481 8.34003 15.0918 8.16979 14.027 8.087L13.833 8.06999L13.721 7.908C13.116 7.02958 12.44 6.20215 11.7 5.434L11.417 5.143L11.7 4.853C13.78 2.719 15.766 1.874 17.003 2.588C18.265 3.315 18.516 5.398 17.691 8.305L17.58 8.69499ZM14.293 7.274C15.247 7.359 16.151 7.502 16.991 7.691C17.562 5.449 17.416 3.788 16.587 3.31C15.763 2.833 14.212 3.563 12.583 5.151C13.199 5.821 13.771 6.529 14.293 7.274ZM8.00101 20.15C7.64914 20.155 7.30227 20.0663 6.99601 19.893C5.73301 19.167 5.48301 17.082 6.30801 14.175L6.41601 13.784L6.81101 13.884C7.77501 14.127 8.83701 14.298 9.96901 14.391L10.163 14.41L10.276 14.57C10.88 15.448 11.556 16.277 12.296 17.047L12.58 17.337L12.296 17.628C10.713 19.255 9.18701 20.15 8.00101 20.15V20.15ZM7.00801 14.788C6.43801 17.03 6.58401 18.694 7.41201 19.172C8.23701 19.642 9.78301 18.917 11.417 17.33C10.801 16.6599 10.2288 15.9508 9.70401 15.207C8.7971 15.1268 7.89648 14.9868 7.00801 14.788V14.788Z" fill="#d0d0ee "/>
<path d="M12 15.313C11.313 15.313 10.608 15.284 9.9 15.225L9.704 15.208L9.591 15.046C9.19176 14.4719 8.81611 13.8817 8.465 13.277C8.11649 12.6706 7.79256 12.0505 7.494 11.418L7.41 11.241L7.494 11.062C7.793 10.43 8.116 9.80999 8.465 9.20399C8.812 8.60799 9.191 8.01199 9.591 7.43399L9.704 7.27399L9.9 7.25599C11.2969 7.13899 12.7011 7.13899 14.098 7.25599L14.292 7.27499L14.405 7.43499C15.2048 8.58375 15.9072 9.7973 16.505 11.063L16.588 11.242L16.505 11.419C15.9089 12.6856 15.2064 13.8992 14.405 15.047L14.292 15.209L14.098 15.226C13.392 15.283 12.686 15.313 12 15.313V15.313ZM10.166 14.409C11.401 14.502 12.599 14.502 13.833 14.409C14.5219 13.4002 15.1343 12.3412 15.665 11.241C15.1361 10.1398 14.5237 9.08065 13.833 8.07299C12.6125 7.97899 11.3865 7.97899 10.166 8.07299C9.47474 9.08029 8.86226 10.1394 8.334 11.241C8.86588 12.3406 9.47821 13.3995 10.166 14.409V14.409Z" fill="#d0d0ee "/>
</svg>
