<svg width="100" height="100" viewBox="0 0 24 24" fill="none" xmlns="http://www.w3.org/2000/svg">
<path d="M3 3V21H21V3H3ZM13.666 12.451H11.548V19H9.841V12.451H7.767V11H13.666V12.451ZM13.998 18.626V16.875C13.998 16.875 14.954 17.596 16.102 17.596C17.25 17.596 17.205 16.846 17.205 16.743C17.205 15.654 13.954 15.654 13.954 13.242C13.954 9.961 18.691 11.256 18.691 11.256L18.632 12.815C18.632 12.815 17.838 12.285 16.94 12.285C16.043 12.285 15.719 12.712 15.719 13.168C15.719 14.345 19 14.227 19 16.596C19 20.244 13.998 18.626 13.998 18.626Z" fill="#d0d0ee "/>
</svg>
